<?xml version="1.0" encoding="UTF-8" standalone="no"?>
<!-- Created with Inkscape (http://www.inkscape.org/) -->

<svg
   width="114.56795mm"
   height="132.29167mm"
   viewBox="0 0 114.56795 132.29167"
   version="1.1"
   id="svg5"
   inkscape:version="1.2 (dc2aedaf03, 2022-05-15)"
   sodipodi:docname="lib_logo.svg"
   xml:space="preserve"
   xmlns:inkscape="http://www.inkscape.org/namespaces/inkscape"
   xmlns:sodipodi="http://sodipodi.sourceforge.net/DTD/sodipodi-0.dtd"
   xmlns:xlink="http://www.w3.org/1999/xlink"
   xmlns="http://www.w3.org/2000/svg"
   xmlns:svg="http://www.w3.org/2000/svg"><sodipodi:namedview
     id="namedview7"
     pagecolor="#080808"
     bordercolor="#868686"
     borderopacity="1"
     inkscape:showpageshadow="0"
     inkscape:pageopacity="0"
     inkscape:pagecheckerboard="0"
     inkscape:deskcolor="#080808"
     inkscape:document-units="mm"
     showgrid="false"
     guidecolor="#6e6aa5"
     guideopacity="0.77254902"
     showguides="false"
     inkscape:zoom="1"
     inkscape:cx="233.5"
     inkscape:cy="225"
     inkscape:window-width="1366"
     inkscape:window-height="699"
     inkscape:window-x="0"
     inkscape:window-y="32"
     inkscape:window-maximized="1"
     inkscape:current-layer="layer1"><inkscape:grid
       type="axonomgrid"
       id="grid543"
       units="px"
       spacingy="13.229167" /></sodipodi:namedview><defs
     id="defs2"><linearGradient
       inkscape:collect="always"
       id="linearGradient11700"><stop
         style="stop-color:#000000;stop-opacity:0.9999119;"
         offset="0"
         id="stop11696" /><stop
         style="stop-color:#3b3b3b;stop-opacity:0;"
         offset="1"
         id="stop11698" /></linearGradient><linearGradient
       inkscape:collect="always"
       id="linearGradient10939"><stop
         style="stop-color:#000000;stop-opacity:1;"
         offset="0"
         id="stop10935" /><stop
         style="stop-color:#3b3b3b;stop-opacity:0;"
         offset="1"
         id="stop10937" /></linearGradient><linearGradient
       inkscape:collect="always"
       id="linearGradient7936"><stop
         style="stop-color:#000000;stop-opacity:1;"
         offset="0"
         id="stop7932" /><stop
         style="stop-color:#3b3b3b;stop-opacity:0;"
         offset="1"
         id="stop7934" /></linearGradient><linearGradient
       id="linearGradient5700"
       inkscape:swatch="solid"><stop
         style="stop-color:#000000;stop-opacity:1;"
         offset="0"
         id="stop5698" /></linearGradient><linearGradient
       inkscape:collect="always"
       xlink:href="#linearGradient7936"
       id="linearGradient7938"
       x1="85.925957"
       y1="248.04688"
       x2="114.56794"
       y2="198.4375"
       gradientUnits="userSpaceOnUse" /><linearGradient
       inkscape:collect="always"
       xlink:href="#linearGradient10939"
       id="linearGradient10941"
       x1="143.20993"
       y1="248.04688"
       x2="114.56795"
       y2="198.4375"
       gradientUnits="userSpaceOnUse" /><linearGradient
       inkscape:collect="always"
       xlink:href="#linearGradient11700"
       id="linearGradient11702"
       x1="114.56794"
       y1="132.29169"
       x2="114.56794"
       y2="198.43752"
       gradientUnits="userSpaceOnUse" /></defs><g
     inkscape:label="Layer 1"
     inkscape:groupmode="layer"
     id="layer1"
     transform="translate(-57.283971,-132.29167)"><path
       id="path603"
       style="fill:#3b3b3b;fill-opacity:1;stroke:none;stroke-width:0.264583px;stroke-linecap:butt;stroke-linejoin:miter;stroke-opacity:1"
       d="m 57.283974,165.36459 57.283966,-33.07292 57.28398,33.07292 -57.28398,33.07291 -57.283966,-33.07291 m 114.567946,0 -57.28398,33.07291 v 66.14583 l 57.28398,-33.07291 z M 57.283974,231.51042 v -66.14583 l 57.283966,33.07291 v 66.14583 L 57.283974,231.51042" /></g><g
     id="g3519"
     style="fill:#000000;fill-opacity:0.770828;stroke:#ffffff;stroke-opacity:0.0950609"
     transform="translate(-57.283971,-132.29167)"><g
       id="g3430"
       transform="matrix(2.3217207,0,0,2.3217207,-15.687438,133.0003)"
       style="fill:#000000;fill-opacity:0.770828;stroke:#ffffff;stroke-opacity:0.0950609"><path
         d="m 70.601,34.7027 c 0.8363,-0.4828 2.0463,-1.3805 2.0463,-2.5291 0.0029,-0.0902 -0.0049,-0.1746 -0.0208,-0.2521 l -0.498,-2.2104 c -0.115,-0.4832 -0.2159,-0.6743 -1.0515,-0.6743 -0.6485,-0.0084 -2.0611,0.1748 -2.4789,0.4161 -0.3891,0.2246 -0.8009,0.4857 -1.2634,0.7931 -0.4619,0.307 -0.4952,0.3175 -0.9141,0.6886 -0.3875,0.3432 -0.6469,0.6113 -0.8487,1.3771 0,0 -0.5622,2.1556 -0.6344,2.4628 -0.0115,0.0554 -0.0165,0.1089 -0.0147,0.1582 0,0.7117 2.4268,1.6441 5.6783,-0.2331 m 2.1746,-2.1341 c 0.1157,0.5655 0.1157,0.6318 0.1157,0.7152 0,1.0807 -1.0522,2.2879 -2.4355,3.0865 -3.1259,1.8071 -5.8641,1.273 -5.8641,-0.125 -3e-4,-0.1945 0.1009,-0.6241 0.1009,-0.6241 -1.1245,0.7141 -2.5798,1.7859 -2.5798,3.2696 0,2.43 4.9865,2.5461 8.9346,0.2667 3.0271,-1.7477 3.7904,-3.7693 3.7904,-5.0175 0,-0.9819 -0.7353,-1.672 -2.061,-1.5721"
         fill="#ee0000"
         id="path833"
         style="clip-rule:evenodd;fill:#000000;fill-opacity:0.770828;fill-rule:evenodd;stroke:#ffffff;stroke-width:0.110398;stroke-opacity:0.0950609"
         sodipodi:nodetypes="cccccssscccccscccsssc" /><path
         d="m 72.7757,32.5657 c 0.1156,0.5655 0.1156,0.6318 0.1156,0.7152 0,1.0806 -1.0521,2.2879 -2.4354,3.0865 -3.1259,1.8071 -5.8641,1.2729 -5.8641,-0.125 -3e-4,-0.1946 0.0341,-0.4069 0.1009,-0.6241 l 0.2447,-0.8406 c -0.0113,0.0543 -0.0162,0.1066 -0.0147,0.1551 0,0.7116 2.4268,1.6441 5.6783,-0.2331 0.8363,-0.4829 2.0463,-1.3806 2.0463,-2.5293 0.0029,-0.0902 -0.0049,-0.1746 -0.0208,-0.252 l 0.1491,0.6472 z"
         id="path835-0"
         style="clip-rule:evenodd;fill:#000000;fill-opacity:0.770828;fill-rule:evenodd;stroke:#ffffff;stroke-width:0.110398;stroke-opacity:0.0950609"
         sodipodi:nodetypes="cscccccscccc" /></g></g><g
     inkscape:groupmode="layer"
     id="layer3"
     inkscape:label="Layer 3"
     transform="translate(-57.283971,-132.29167)"><path
       style="opacity:0.25;fill:#9d9d9d;fill-opacity:1;stroke:none;stroke-width:0.264583px;stroke-linecap:butt;stroke-linejoin:miter;stroke-opacity:1"
       d="m 80.197562,231.51042 11.456794,6.61458 v 13.22917 l -11.456794,-6.61458 z"
       id="path607" /><path
       style="opacity:0.250122;fill:#9d9d9d;fill-opacity:1;stroke:none;stroke-width:0.264583px;stroke-linecap:butt;stroke-linejoin:miter;stroke-opacity:1"
       d="m 137.48154,145.52083 -57.283978,33.07292 v 13.22917 l 11.456794,6.61458 v -13.22916 l 57.283974,-33.07292 -11.45679,-6.61459"
       id="path605" /></g><g
     inkscape:groupmode="layer"
     id="layer2"
     inkscape:label="Layer 2"
     style="display:inline"
     transform="translate(-57.283971,-132.29167)"><path
       style="opacity:0.407;fill:url(#linearGradient10941);fill-opacity:1;stroke:none;stroke-width:1.965;stroke-linecap:butt;stroke-linejoin:miter;stroke-dasharray:none;stroke-opacity:1;paint-order:normal"
       d="m 171.85192,165.36459 -57.28398,33.07291 v 66.14583 l 57.28398,-33.07291 z"
       id="path601-6" /><path
       style="opacity:0.406806;fill:url(#linearGradient7938);fill-opacity:1;fill-rule:evenodd;stroke:none;stroke-width:0.565;stroke-linecap:butt;stroke-linejoin:miter;stroke-dasharray:none;stroke-opacity:1"
       d="m 57.283975,231.51042 v -66.14583 l 57.283965,33.07291 v 66.14583 L 57.283975,231.51042"
       id="path599-3" /><path
       style="opacity:0.407;fill:url(#linearGradient11702);fill-opacity:1;stroke:none;stroke-width:0.265;stroke-linecap:butt;stroke-linejoin:miter;stroke-dasharray:none;stroke-opacity:1"
       d="M 57.283973,165.3646 114.56794,132.29168 171.85192,165.3646 114.56794,198.43751 57.283973,165.3646"
       id="path603-7" /></g></svg>
