<?xml version="1.0" encoding="UTF-8" standalone="no"?>
<svg
   width="13.133888mm"
   height="9.9358292mm"
   viewBox="0 0 13.133888 9.9358291"
   version="1.1"
   id="svg8"
   inkscape:version="1.2.1 (9c6d41e410, 2022-07-14)"
   sodipodi:docname="logo3.svg"
   xml:space="preserve"
   xmlns:inkscape="http://www.inkscape.org/namespaces/inkscape"
   xmlns:sodipodi="http://sodipodi.sourceforge.net/DTD/sodipodi-0.dtd"
   xmlns="http://www.w3.org/2000/svg"
   xmlns:svg="http://www.w3.org/2000/svg"
   xmlns:rdf="http://www.w3.org/1999/02/22-rdf-syntax-ns#"
   xmlns:cc="http://creativecommons.org/ns#"
   xmlns:dc="http://purl.org/dc/elements/1.1/"><defs
     id="defs2" /><sodipodi:namedview
     id="base"
     pagecolor="#0c0c0c"
     bordercolor="#666666"
     borderopacity="1.0"
     inkscape:pageopacity="0"
     inkscape:pageshadow="2"
     inkscape:zoom="1.4"
     inkscape:cx="-30"
     inkscape:cy="105.71429"
     inkscape:document-units="mm"
     inkscape:current-layer="layer1"
     inkscape:document-rotation="0"
     showgrid="false"
     fit-margin-top="0"
     fit-margin-left="0"
     fit-margin-right="0"
     fit-margin-bottom="0"
     inkscape:window-width="1366"
     inkscape:window-height="699"
     inkscape:window-x="0"
     inkscape:window-y="32"
     inkscape:window-maximized="1"
     inkscape:showpageshadow="0"
     inkscape:pagecheckerboard="0"
     inkscape:deskcolor="#101010" /><metadata
     id="metadata5"><rdf:RDF><cc:Work
         rdf:about=""><dc:format>image/svg+xml</dc:format><dc:type
           rdf:resource="http://purl.org/dc/dcmitype/StillImage" /></cc:Work></rdf:RDF></metadata><g
     inkscape:label="Layer 1"
     inkscape:groupmode="layer"
     id="layer1"
     transform="translate(-44.196338,-35.114336)"><g
       id="g302"
       transform="translate(-1.9984859,0.46253306)"><path
         d="m 54.955601,40.378062 c 0.863211,0 2.112031,-0.177962 2.112031,-1.204668 0.003,-0.07916 -0.005,-0.158532 -0.0214,-0.236032 l -0.51402,-2.23281 c -0.11868,-0.491273 -0.22289,-0.714167 -1.08533,-1.145384 -0.669343,-0.342235 -2.127266,-0.907365 -2.558482,-0.907365 -0.40163,0 -0.82663,0.02082 -1.304066,0.05691 -0.476683,0.03604 -0.511058,0.02826 -0.943455,0.143761 -0.399971,0.106836 -0.667662,0.212627 -0.875984,0.792992 0,0 -0.580254,1.636657 -0.654773,1.874014 -0.01181,0.04361 -0.017,0.08876 -0.01513,0.133803 0,0.636116 2.504721,2.721985 5.860725,2.721985 m 2.244515,-0.785264 c 0.11934,0.56513 0.11934,0.624414 0.11934,0.698933 0,0.965986 -1.08599,1.502082 -2.513666,1.502082 -3.226396,0.0021 -6.052597,-1.888477 -6.052597,-3.138078 -2.21e-4,-0.173988 0.104216,-0.505735 0.104216,-0.505735 -1.160619,0.05796 -2.662701,0.264956 -2.662701,1.591173 0,2.172091 5.146667,4.849254 9.221698,4.849254 3.12428,0 3.91219,-1.413101 3.91219,-2.528788 0,-0.877668 -0.75899,-1.874014 -2.12727,-2.468841"
         fill="#ee0000"
         id="path833"
         style="clip-rule:evenodd;fill:#767a7f;fill-opacity:1;fill-rule:evenodd;stroke-width:0.110398"
         sodipodi:nodetypes="cccccssscccccscccsssc" /><path
         d="m 57.200222,39.590148 c 0.11934,0.56513 0.11934,0.624414 0.11934,0.698933 0,0.965987 -1.08599,1.502082 -2.513658,1.502082 -3.226396,0.0021 -6.052597,-1.888477 -6.052597,-3.138077 -2.21e-4,-0.173988 0.03522,-0.346099 0.104216,-0.505736 l 0.252481,-0.625076 c -0.01159,0.04272 -0.01667,0.08688 -0.01512,0.131043 0,0.636116 2.504721,2.721985 5.860724,2.721985 0.863204,0 2.112024,-0.177962 2.112024,-1.204778 0.003,-0.07916 -0.005,-0.158533 -0.0214,-0.235922 l 0.15389,0.655436 z"
         id="path835-0"
         style="clip-rule:evenodd;fill-rule:evenodd;stroke-width:0.110398"
         sodipodi:nodetypes="cscccccscccc" /></g></g></svg>
