<?xml version="1.0" encoding="UTF-8" standalone="no"?>
<svg
   width="17.094648mm"
   height="15.959099mm"
   viewBox="0 0 17.094648 15.959099"
   version="1.1"
   id="svg8"
   inkscape:version="1.2.1 (9c6d41e410, 2022-07-14)"
   sodipodi:docname="logo3.svg"
   xml:space="preserve"
   inkscape:export-filename="logo5.svg"
   inkscape:export-xdpi="96"
   inkscape:export-ydpi="96"
   xmlns:inkscape="http://www.inkscape.org/namespaces/inkscape"
   xmlns:sodipodi="http://sodipodi.sourceforge.net/DTD/sodipodi-0.dtd"
   xmlns:xlink="http://www.w3.org/1999/xlink"
   xmlns="http://www.w3.org/2000/svg"
   xmlns:svg="http://www.w3.org/2000/svg"
   xmlns:rdf="http://www.w3.org/1999/02/22-rdf-syntax-ns#"
   xmlns:cc="http://creativecommons.org/ns#"
   xmlns:dc="http://purl.org/dc/elements/1.1/"><defs
     id="defs2"><linearGradient
       inkscape:collect="always"
       id="linearGradient6922"><stop
         style="stop-color:#868b8f;stop-opacity:1;"
         offset="0"
         id="stop6918" /><stop
         style="stop-color:#626566;stop-opacity:1;"
         offset="1"
         id="stop6920" /></linearGradient><linearGradient
       inkscape:collect="always"
       id="linearGradient1416"><stop
         style="stop-color:#767a7f;stop-opacity:1;"
         offset="0"
         id="stop1412" /><stop
         style="stop-color:#6c6d74;stop-opacity:1;"
         offset="1"
         id="stop1414" /></linearGradient><linearGradient
       inkscape:collect="always"
       xlink:href="#linearGradient1416"
       id="linearGradient1418"
       x1="24.425674"
       y1="40.218582"
       x2="35.282131"
       y2="40.416473"
       gradientUnits="userSpaceOnUse" /><linearGradient
       inkscape:collect="always"
       xlink:href="#linearGradient6922"
       id="linearGradient6924"
       x1="26.131306"
       y1="38.676498"
       x2="27.976925"
       y2="30.039293"
       gradientUnits="userSpaceOnUse" /></defs><sodipodi:namedview
     id="base"
     pagecolor="#0c0c0c"
     bordercolor="#666666"
     borderopacity="1.0"
     inkscape:pageopacity="0"
     inkscape:pageshadow="2"
     inkscape:zoom="5.6"
     inkscape:cx="20.535714"
     inkscape:cy="19.821429"
     inkscape:document-units="mm"
     inkscape:current-layer="layer1"
     inkscape:document-rotation="0"
     showgrid="false"
     fit-margin-top="0"
     fit-margin-left="0"
     fit-margin-right="0"
     fit-margin-bottom="0"
     inkscape:window-width="1366"
     inkscape:window-height="699"
     inkscape:window-x="0"
     inkscape:window-y="32"
     inkscape:window-maximized="1"
     inkscape:showpageshadow="0"
     inkscape:pagecheckerboard="0"
     inkscape:deskcolor="#101010" /><metadata
     id="metadata5"><rdf:RDF><cc:Work
         rdf:about=""><dc:format>image/svg+xml</dc:format><dc:type
           rdf:resource="http://purl.org/dc/dcmitype/StillImage" /></cc:Work></rdf:RDF></metadata><g
     inkscape:label="Layer 1"
     inkscape:groupmode="layer"
     id="layer1"
     transform="translate(-20.597883,-28.573734)"><text
       xml:space="preserve"
       style="font-style:normal;font-weight:normal;font-size:10.5833px;line-height:1.25;font-family:sans-serif;fill:#000000;fill-opacity:1;stroke:none;stroke-width:0.264583"
       x="109.63608"
       y="87.5308"
       id="text865"><tspan
         sodipodi:role="line"
         id="tspan863"
         x="109.63608"
         y="87.5308"
         style="font-style:normal;font-variant:normal;font-weight:normal;font-stretch:normal;font-family:'Noto Sans CJK JP';-inkscape-font-specification:'Noto Sans CJK JP';stroke-width:0.264583" /></text><path
       style="fill:url(#linearGradient1418);fill-opacity:1;stroke:none;stroke-width:0.264583px;stroke-linecap:butt;stroke-linejoin:miter;stroke-opacity:1"
       d="m 24.442848,42.490349 c 0,0 1.101558,2.785499 6.120354,1.85063 4.471907,-0.832998 4.731255,-3.792459 4.731255,-3.792459 l -0.472273,-3.933868 -10.721871,1.275647 z"
       id="path414"
       sodipodi:nodetypes="cscccc" /><path
       style="fill:#000000;fill-opacity:1;stroke:none;stroke-width:0.264583px;stroke-linecap:butt;stroke-linejoin:miter;stroke-opacity:1"
       d="m 25.833151,32.683226 c 0,0 -3.877445,1.823146 -1.462773,3.432865 2.414672,1.609719 6.765644,0.316435 6.765644,0.316435 0,0 2.763718,-0.859421 3.447894,-2.2482 0.717723,-1.456875 0.03574,-2.039975 0.03574,-2.039975 0,0 -1.039118,-1.32841 -3.495664,-1.092683 -3.168251,0.304021 -5.290846,1.631558 -5.290846,1.631558 z"
       id="path1019"
       sodipodi:nodetypes="cscscsc" /><rect
       style="fill:#252628;fill-opacity:1;stroke:none;stroke-width:0.08809;stroke-dasharray:none;stroke-opacity:1"
       id="rect1682"
       width="7.4347219"
       height="9.1982174"
       x="25.403906"
       y="28.617779" /><path
       id="path1423"
       style="fill:url(#linearGradient6924);fill-opacity:1;stroke:none;stroke-width:0.264583px;stroke-linecap:butt;stroke-linejoin:miter;stroke-opacity:1"
       d="m 33.140787,29.48479 c -2.315429,-0.01975 -4.418335,1.069702 -4.418335,1.069702 l -4.266923,2.128552 c 0,0 -3.96528,2.021026 -3.855062,2.942973 0.110217,0.921947 1.632006,3.05659 8.672855,3.285071 7.040852,0.22848 8.173662,-4.332036 8.173662,-4.332036 0,0 1.225771,-3.022549 -1.79989,-4.533573 -0.803692,-0.401366 -1.668812,-0.553546 -2.506307,-0.560689 z m -1.362708,1.53944 c 1.988404,0.02911 2.841687,1.120345 2.841687,1.120345 0,0 0.682066,0.582796 -0.03566,2.039669 -0.684175,1.388778 -3.447851,2.248442 -3.447851,2.248442 0,0 -4.351326,1.292941 -6.765995,-0.316777 -2.41467,-1.609717 1.462959,-3.432865 1.462959,-3.432865 0,0 2.122386,-1.327404 5.290633,-1.631425 0.230301,-0.0221 0.448527,-0.0304 0.654224,-0.02739 z" /><rect
       style="fill:#252628;fill-opacity:1;stroke:none;stroke-width:0.0740728;stroke-dasharray:none;stroke-opacity:1"
       id="rect6953"
       width="7.4487391"
       height="6.4915729"
       x="25.396896"
       y="28.610769" /><g
       aria-label="&lt;/&gt;"
       transform="scale(0.8543659,1.1704587)"
       id="text1824"
       style="font-size:3.56213px;line-height:1.25;fill:#d3c9c9;stroke:none;stroke-width:0.089053"><path
         d="m 33.10774,26.545974 -1.794979,0.638331 1.794979,0.634852 v 0.316556 l -2.229809,-0.808784 v -0.288727 l 2.229809,-0.808785 z"
         id="path811"
         style="stroke:none" /><path
         d="m 34.38962,25.702403 h 0.295685 l -0.904447,2.927278 h -0.295685 z"
         id="path813"
         style="stroke:none" /><path
         d="m 35.062737,26.545974 v -0.316557 l 2.22981,0.808785 v 0.288727 l -2.22981,0.808784 v -0.316556 l 1.791501,-0.634852 z"
         id="path815"
         style="stroke:none" /></g></g></svg>
