<?xml version="1.0" encoding="UTF-8" standalone="no"?>
<svg
   xmlns:dc="http://purl.org/dc/elements/1.1/"
   xmlns:cc="http://creativecommons.org/ns#"
   xmlns:rdf="http://www.w3.org/1999/02/22-rdf-syntax-ns#"
   xmlns:svg="http://www.w3.org/2000/svg"
   xmlns="http://www.w3.org/2000/svg"
   xmlns:sodipodi="http://sodipodi.sourceforge.net/DTD/sodipodi-0.dtd"
   xmlns:inkscape="http://www.inkscape.org/namespaces/inkscape"
   width="31.698338mm"
   height="9.9358301mm"
   viewBox="0 0 31.698338 9.9358301"
   version="1.1"
   id="svg8"
   inkscape:version="1.0.2 (e86c870879, 2021-01-15)"
   sodipodi:docname="logo.svg">
  <defs
     id="defs2" />
  <sodipodi:namedview
     id="base"
     pagecolor="#ffffff"
     bordercolor="#666666"
     borderopacity="1.0"
     inkscape:pageopacity="0.0"
     inkscape:pageshadow="2"
     inkscape:zoom="0.98994949"
     inkscape:cx="137.69404"
     inkscape:cy="76.88236"
     inkscape:document-units="mm"
     inkscape:current-layer="layer1"
     inkscape:document-rotation="0"
     showgrid="false"
     fit-margin-top="0"
     fit-margin-left="0"
     fit-margin-right="0"
     fit-margin-bottom="0"
     inkscape:window-width="1366"
     inkscape:window-height="699"
     inkscape:window-x="0"
     inkscape:window-y="32"
     inkscape:window-maximized="1" />
  <metadata
     id="metadata5">
    <rdf:RDF>
      <cc:Work
         rdf:about="">
        <dc:format>image/svg+xml</dc:format>
        <dc:type
           rdf:resource="http://purl.org/dc/dcmitype/StillImage" />
        <dc:title></dc:title>
      </cc:Work>
    </rdf:RDF>
  </metadata>
  <g
     inkscape:label="Layer 1"
     inkscape:groupmode="layer"
     id="layer1"
     transform="translate(-44.196338,-35.114336)">
    <text
       xml:space="preserve"
       style="font-style:normal;font-weight:normal;font-size:10.5833px;line-height:1.25;font-family:sans-serif;fill:#000000;fill-opacity:1;stroke:none;stroke-width:0.264583"
       x="109.63608"
       y="87.5308"
       id="text865"><tspan
         sodipodi:role="line"
         id="tspan863"
         x="109.63608"
         y="87.5308"
         style="font-style:normal;font-variant:normal;font-weight:normal;font-stretch:normal;font-family:'Noto Sans CJK JP';-inkscape-font-specification:'Noto Sans CJK JP';stroke-width:0.264583" /></text>
    <g
       id="g938"
       transform="translate(-46.882034,-49.452774)">
      <path
         d="m 99.839149,90.293369 c 0.863211,0 2.112031,-0.177962 2.112031,-1.204668 0.003,-0.07916 -0.005,-0.158532 -0.0214,-0.236032 l -0.51402,-2.23281 c -0.11868,-0.491273 -0.22289,-0.714167 -1.08533,-1.145384 -0.669343,-0.342235 -2.127266,-0.907365 -2.558482,-0.907365 -0.40163,0 -0.82663,0.02082 -1.304066,0.05691 -0.476683,0.03604 -0.511058,0.02826 -0.943455,0.143761 -0.399971,0.106836 -0.667662,0.212627 -0.875984,0.792992 0,0 -0.580254,1.636657 -0.654773,1.874014 -0.01181,0.04361 -0.017,0.08876 -0.01513,0.133803 0,0.636116 2.504721,2.721985 5.860725,2.721985 m 2.244515,-0.785264 c 0.11934,0.56513 0.11934,0.624414 0.11934,0.698933 0,0.965986 -1.08599,1.502082 -2.513666,1.502082 -3.226396,0.0021 -6.052597,-1.888477 -6.052597,-3.138078 -2.21e-4,-0.173988 0.104216,-0.505735 0.104216,-0.505735 -1.160619,0.05796 -2.662701,0.264956 -2.662701,1.591173 0,2.172091 5.146667,4.849254 9.221698,4.849254 3.12428,0 3.91219,-1.413101 3.91219,-2.528788 0,-0.877668 -0.75899,-1.874014 -2.12727,-2.468841"
         fill="#ee0000"
         id="path833"
         style="clip-rule:evenodd;fill:#767a7f;fill-opacity:1;fill-rule:evenodd;stroke-width:0.110398"
         sodipodi:nodetypes="cccccssscccccscccsssc" />
      <path
         d="m 117.96453,88.690465 c -0.13167,0.360181 -0.16951,0.639883 -0.74292,0.640098 -0.29817,0.0063 -0.36331,-0.05045 -0.58684,-0.248092 l 0.008,-1.005879 c 0.21851,-0.206638 0.33688,-0.149277 0.63749,-0.139675 0.56579,-2.13e-4 0.68398,0.199568 0.68398,0.750898 z m -1.98108,-1.868989 -0.51795,-0.0031 c 0,0 -0.0595,5.00613 0.1939,5.142277 0.43061,0.06374 0.98099,-0.06019 0.98099,-0.06019 l -0.0829,-1.901449 c 0.29858,0.169129 0.3891,0.156116 0.73233,0.153007 1.11713,-4.24e-4 1.56244,-0.443669 1.56203,-1.546992 l 1e-4,-0.02418 c -4.5e-4,-1.069318 -0.11803,-1.811281 -1.18735,-1.81088 l -0.0105,5e-6 c -0.37015,-0.0017 -0.73112,0.115308 -1.02999,0.333678 z"
         id="path835"
         style="clip-rule:evenodd;fill:#f6f5f6;fill-opacity:1;fill-rule:evenodd;stroke-width:0.110398"
         sodipodi:nodetypes="cccccsccccccccccscc" />
      <path
         d="m 102.08377,89.505455 c 0.11934,0.56513 0.11934,0.624414 0.11934,0.698933 0,0.965987 -1.08599,1.502082 -2.513658,1.502082 -3.226396,0.0021 -6.052597,-1.888477 -6.052597,-3.138077 -2.21e-4,-0.173988 0.03522,-0.346099 0.104216,-0.505736 l 0.252481,-0.625076 c -0.01159,0.04272 -0.01667,0.08688 -0.01512,0.131043 0,0.636116 2.504721,2.721985 5.860724,2.721985 0.863204,0 2.112024,-0.177962 2.112024,-1.204778 0.003,-0.07916 -0.005,-0.158533 -0.0214,-0.235922 l 0.15389,0.655436 z"
         id="path835-0"
         style="clip-rule:evenodd;fill-rule:evenodd;stroke-width:0.110398"
         sodipodi:nodetypes="cscccccscccc" />
      <path
         d="m 113.1234,89.155599 c 0.39642,0.04867 0.76777,0.396982 0.80525,0.60929 -0.38932,0.02649 -0.9335,0.02454 -1.60078,0 0.11592,-0.381538 0.40928,-0.656714 0.79553,-0.60929 z m -1.97823,1.034986 c 0,1.117785 0.91421,1.988498 2.08929,1.988498 0.64583,0 1.23661,-0.159367 1.6042,-0.580917 l -0.43273,-0.405828 c -0.38825,-0.09576 -1.00024,0.282687 -1.58119,0.08273 -0.40947,0.01148 -0.31747,-0.307833 -0.47556,-0.685727 l 2.00534,0.02401 0.41632,-0.457381 c 0,0 0.18558,-0.650359 -0.0134,-0.990177 -0.33441,-0.571203 -0.89852,-0.938099 -1.61,-0.96525 l -0.0297,-2.21e-4 c -0.98897,0.04468 -2.08653,0.442588 -1.97128,1.971276 l 1.1e-4,0.01678 -10e-4,0.0021 z m -2.64515,-2.058735 c 0.3949,-0.124284 0.59883,0.275338 0.59883,0.587877 0,0.312538 -0.31501,0.438574 -0.72737,0.475406 l -0.40501,-0.16152 0.0929,-0.763071 z m -1.86253,3.972714 c 0.2241,0.113354 1.24816,0 1.24816,0 0.20995,-0.335552 0.0353,-1.931103 0.0353,-1.931103 l 0.90993,-0.01992 c 0,0 0.66471,1.850348 0.96325,1.951025 l 1.19027,-0.02166 c 0.24762,-0.125852 -1.31631,-2.054326 -1.31631,-2.054326 0.57992,-0.235811 0.59244,-0.822103 0.5899,-1.448173 0,-0.91421 -0.73928,-1.428383 -1.81397,-1.475793 0,0 -1.22889,0.07513 -1.49022,0.30444 -0.26524,0.467711 -0.31631,4.69551 -0.31631,4.69551 z"
         id="path835-6"
         style="clip-rule:evenodd;fill:#f6f5f6;fill-opacity:1;fill-rule:evenodd;stroke-width:0.110398"
         sodipodi:nodetypes="sccscscccccssccccccsssccsccccccccscc" />
      <path
         d="m 120.81515,89.024562 c 0.19055,0 0.71736,0.159171 0.94057,0.483585 0.21,0.305225 0.12049,0.770875 0.18038,0.950157 h -1.89517 c 0.0427,-0.140611 0.009,-0.528783 0.0922,-0.765335 0.14166,-0.405317 0.43634,-0.668407 0.68207,-0.668407 z m -1.97823,1.034986 c 0,1.117785 0.91421,1.988498 2.08929,1.988498 0.64583,0 0.93587,-0.202591 1.42228,-0.608968 0.39461,-0.410204 0.42822,-0.980774 0.42822,-0.980774 h -0.84061 l -0.18256,0.31883 c -0.1815,0.189003 -0.44988,0.290459 -0.76871,0.290459 -0.40947,0.01148 -0.78581,-0.231395 -0.9439,-0.609289 h 1.89517 0.84061 V 90.16641 c 0,-1.219241 -0.81971,-2.096909 -1.93749,-2.096909 l -0.0297,-2.21e-4 c -1.08146,0 -1.97128,0.889922 -1.97128,1.971276 l 1.1e-4,0.01678 -0.001,0.0021 z"
         id="path835-6-8"
         style="clip-rule:evenodd;fill:#f6f5f6;fill-opacity:1;fill-rule:evenodd;stroke-width:0.110398"
         sodipodi:nodetypes="ssccsscsccccccccscccccc" />
    </g>
  </g>
</svg>
