<?xml version="1.0" encoding="UTF-8" standalone="no"?>
<!-- Created with Inkscape (http://www.inkscape.org/) -->

<svg
   width="992mm"
   height="160mm"
   viewBox="0 0 992 160"
   version="1.1"
   id="svg5"
   inkscape:version="1.2 (dc2aedaf03, 2022-05-15)"
   sodipodi:docname="userbanner.svg"
   xml:space="preserve"
   xmlns:inkscape="http://www.inkscape.org/namespaces/inkscape"
   xmlns:sodipodi="http://sodipodi.sourceforge.net/DTD/sodipodi-0.dtd"
   xmlns:xlink="http://www.w3.org/1999/xlink"
   xmlns="http://www.w3.org/2000/svg"
   xmlns:svg="http://www.w3.org/2000/svg"><sodipodi:namedview
     id="namedview7"
     pagecolor="#505050"
     bordercolor="#eeeeee"
     borderopacity="1"
     inkscape:showpageshadow="0"
     inkscape:pageopacity="0"
     inkscape:pagecheckerboard="0"
     inkscape:deskcolor="#080808"
     inkscape:document-units="mm"
     showgrid="false"
     inkscape:zoom="0.082993038"
     inkscape:cx="873.56725"
     inkscape:cy="-289.18088"
     inkscape:window-width="1366"
     inkscape:window-height="699"
     inkscape:window-x="0"
     inkscape:window-y="32"
     inkscape:window-maximized="1"
     inkscape:current-layer="layer1" /><defs
     id="defs2"><linearGradient
       inkscape:collect="always"
       id="linearGradient7420"><stop
         style="stop-color:#000000;stop-opacity:0.85650408;"
         offset="0"
         id="stop7416" /><stop
         style="stop-color:#000000;stop-opacity:0.26294962;"
         offset="1"
         id="stop7418" /></linearGradient><linearGradient
       id="linearGradient7388"
       inkscape:swatch="solid"><stop
         style="stop-color:#333333;stop-opacity:1;"
         offset="0"
         id="stop7386" /></linearGradient><linearGradient
       inkscape:collect="always"
       id="linearGradient871"><stop
         style="stop-color:#1b1b1b;stop-opacity:1;"
         offset="0"
         id="stop867" /><stop
         style="stop-color:#1e1616;stop-opacity:1;"
         offset="1"
         id="stop869" /></linearGradient><linearGradient
       inkscape:collect="always"
       xlink:href="#linearGradient871"
       id="linearGradient873"
       x1="-14.690072"
       y1="80.873291"
       x2="1009.7152"
       y2="80.873291"
       gradientUnits="userSpaceOnUse"
       gradientTransform="matrix(0.96865227,0,0,0.88628352,14.10863,8.3581927)"
       spreadMethod="repeat" /><linearGradient
       inkscape:collect="always"
       xlink:href="#linearGradient7420"
       id="linearGradient7422"
       x1="44.196338"
       y1="40.082251"
       x2="57.330226"
       y2="40.082251"
       gradientUnits="userSpaceOnUse" /></defs><g
     inkscape:label="Calque 1"
     inkscape:groupmode="layer"
     id="layer1"><rect
       style="fill:url(#linearGradient873);fill-opacity:1;stroke-width:1.72802"
       id="rect175"
       width="992.29254"
       height="160.18716"
       x="-0.12091064"
       y="-0.05871582" /><g
       inkscape:label="Layer 1"
       id="layer1-6"
       transform="matrix(9.9342109,0,0,9.9342109,-8.2677892,-318.15067)"
       style="fill:url(#linearGradient7422);fill-opacity:1"><text
         xml:space="preserve"
         style="font-style:normal;font-weight:normal;font-size:10.5833px;line-height:1.25;font-family:sans-serif;fill:url(#linearGradient7422);fill-opacity:1;stroke:none;stroke-width:0.264583"
         x="109.63608"
         y="87.5308"
         id="text865"><tspan
           sodipodi:role="line"
           id="tspan863"
           x="109.63608"
           y="87.5308"
           style="font-style:normal;font-variant:normal;font-weight:normal;font-stretch:normal;font-family:'Noto Sans CJK JP';-inkscape-font-specification:'Noto Sans CJK JP';stroke-width:0.264583;fill:url(#linearGradient7422);fill-opacity:1" /></text><path
         d="m 52.957115,40.840595 c 0.863211,0 2.112031,-0.177962 2.112031,-1.204668 0.003,-0.07916 -0.005,-0.158532 -0.0214,-0.236032 l -0.51402,-2.23281 c -0.11868,-0.491273 -0.22289,-0.714167 -1.08533,-1.145384 -0.669343,-0.342235 -2.127266,-0.907365 -2.558482,-0.907365 -0.40163,0 -0.82663,0.02082 -1.304066,0.05691 -0.476683,0.03604 -0.511058,0.02826 -0.943455,0.143761 -0.399971,0.106836 -0.667662,0.212627 -0.875984,0.792992 0,0 -0.580254,1.636657 -0.654773,1.874014 -0.01181,0.04361 -0.017,0.08876 -0.01513,0.133803 0,0.636116 2.504721,2.721985 5.860725,2.721985 m 2.244515,-0.785264 c 0.11934,0.56513 0.11934,0.624414 0.11934,0.698933 0,0.965986 -1.08599,1.502082 -2.513666,1.502082 -3.226396,0.0021 -6.052597,-1.888477 -6.052597,-3.138078 -2.21e-4,-0.173988 0.104216,-0.505735 0.104216,-0.505735 -1.160619,0.05796 -2.662701,0.264956 -2.662701,1.591173 0,2.172091 5.146667,4.849254 9.221698,4.849254 3.12428,0 3.91219,-1.413101 3.91219,-2.528788 0,-0.877668 -0.75899,-1.874014 -2.12727,-2.468841"
         fill="#ee0000"
         id="path833"
         style="clip-rule:evenodd;fill:url(#linearGradient7422);fill-opacity:1;fill-rule:evenodd;stroke-width:0.110398"
         sodipodi:nodetypes="cccccssscccccscccsssc" /><path
         d="m 55.201736,40.052681 c 0.11934,0.56513 0.11934,0.624414 0.11934,0.698933 0,0.965987 -1.08599,1.502082 -2.513658,1.502082 -3.226396,0.0021 -6.052597,-1.888477 -6.052597,-3.138077 -2.21e-4,-0.173988 0.03522,-0.346099 0.104216,-0.505736 l 0.252481,-0.625076 c -0.01159,0.04272 -0.01667,0.08688 -0.01512,0.131043 0,0.636116 2.504721,2.721985 5.860724,2.721985 0.863204,0 2.112024,-0.177962 2.112024,-1.204778 0.003,-0.07916 -0.005,-0.158533 -0.0214,-0.235922 l 0.15389,0.655436 z"
         id="path835-0"
         style="clip-rule:evenodd;fill-rule:evenodd;stroke-width:0.110398;fill:url(#linearGradient7422);fill-opacity:1"
         sodipodi:nodetypes="cscccccscccc" /></g></g></svg>
