<?xml version="1.0" encoding="UTF-8" standalone="no"?>
<!-- Created with Inkscape (http://www.inkscape.org/) -->

<svg
   width="992mm"
   height="160mm"
   viewBox="0 0 992 160"
   version="1.1"
   id="svg5"
   inkscape:version="1.2.1 (9c6d41e410, 2022-07-14)"
   sodipodi:docname="userbanner2.svg"
   xml:space="preserve"
   xmlns:inkscape="http://www.inkscape.org/namespaces/inkscape"
   xmlns:sodipodi="http://sodipodi.sourceforge.net/DTD/sodipodi-0.dtd"
   xmlns:xlink="http://www.w3.org/1999/xlink"
   xmlns="http://www.w3.org/2000/svg"
   xmlns:svg="http://www.w3.org/2000/svg"><sodipodi:namedview
     id="namedview7"
     pagecolor="#505050"
     bordercolor="#eeeeee"
     borderopacity="1"
     inkscape:showpageshadow="0"
     inkscape:pageopacity="0"
     inkscape:pagecheckerboard="0"
     inkscape:deskcolor="#080808"
     inkscape:document-units="mm"
     showgrid="false"
     inkscape:zoom="0.23473976"
     inkscape:cx="1439.8924"
     inkscape:cy="387.66334"
     inkscape:window-width="1366"
     inkscape:window-height="699"
     inkscape:window-x="0"
     inkscape:window-y="32"
     inkscape:window-maximized="1"
     inkscape:current-layer="layer1" /><defs
     id="defs2"><linearGradient
       inkscape:collect="always"
       id="linearGradient929"><stop
         style="stop-color:#040404;stop-opacity:1;"
         offset="0"
         id="stop925" /><stop
         style="stop-color:#151212;stop-opacity:1;"
         offset="1"
         id="stop927" /></linearGradient><linearGradient
       id="linearGradient7388"
       inkscape:swatch="solid"><stop
         style="stop-color:#333333;stop-opacity:1;"
         offset="0"
         id="stop7386" /></linearGradient><linearGradient
       inkscape:collect="always"
       id="linearGradient871"><stop
         style="stop-color:#1b1b1b;stop-opacity:1;"
         offset="0"
         id="stop867" /><stop
         style="stop-color:#1e1616;stop-opacity:1;"
         offset="1"
         id="stop869" /></linearGradient><linearGradient
       inkscape:collect="always"
       xlink:href="#linearGradient871"
       id="linearGradient873"
       x1="-14.690072"
       y1="80.873291"
       x2="1009.7152"
       y2="80.873291"
       gradientUnits="userSpaceOnUse"
       gradientTransform="matrix(0.96865227,0,0,0.88628352,14.08327,8.3233264)"
       spreadMethod="repeat" /><linearGradient
       inkscape:collect="always"
       xlink:href="#linearGradient929"
       id="linearGradient931"
       x1="20.598211"
       y1="36.571801"
       x2="37.692551"
       y2="36.571801"
       gradientUnits="userSpaceOnUse" /></defs><g
     inkscape:label="Calque 1"
     inkscape:groupmode="layer"
     id="layer1"><rect
       style="fill:url(#linearGradient873);fill-opacity:1;stroke-width:1.72802"
       id="rect175"
       width="992.29254"
       height="160.18716"
       x="-0.14627075"
       y="-0.093582153" /><g
       inkscape:label="Layer 1"
       id="layer1-67"
       transform="matrix(6.2309621,0,0,6.2309621,314.39623,-147.87751)"
       style="fill:url(#linearGradient931);fill-opacity:1"><text
         xml:space="preserve"
         style="font-style:normal;font-weight:normal;font-size:10.5833px;line-height:1.25;font-family:sans-serif;fill:url(#linearGradient931);fill-opacity:1;stroke:none;stroke-width:0.264583"
         x="109.63608"
         y="87.5308"
         id="text865-5"><tspan
           sodipodi:role="line"
           id="tspan863-3"
           x="109.63608"
           y="87.5308"
           style="font-style:normal;font-variant:normal;font-weight:normal;font-stretch:normal;font-family:'Noto Sans CJK JP';-inkscape-font-specification:'Noto Sans CJK JP';stroke-width:0.264583;fill:url(#linearGradient931);fill-opacity:1" /></text><path
         style="fill:url(#linearGradient931);fill-opacity:1;stroke:none;stroke-width:0.264583px;stroke-linecap:butt;stroke-linejoin:miter;stroke-opacity:1"
         d="m 24.442848,42.490349 c 0,0 1.101558,2.785499 6.120354,1.85063 4.471907,-0.832998 4.731255,-3.792459 4.731255,-3.792459 l -0.472273,-3.933868 -10.721871,1.275647 z"
         id="path414"
         sodipodi:nodetypes="cscccc" /><path
         style="fill:url(#linearGradient931);fill-opacity:1;stroke:none;stroke-width:0.264583px;stroke-linecap:butt;stroke-linejoin:miter;stroke-opacity:1"
         d="m 25.833151,32.683226 c 0,0 -3.877445,1.823146 -1.462773,3.432865 2.414672,1.609719 6.765644,0.316435 6.765644,0.316435 0,0 2.763718,-0.859421 3.447894,-2.2482 0.717723,-1.456875 0.03574,-2.039975 0.03574,-2.039975 0,0 -1.039118,-1.32841 -3.495664,-1.092683 -3.168251,0.304021 -5.290846,1.631558 -5.290846,1.631558 z"
         id="path1019"
         sodipodi:nodetypes="cscscsc" /><rect
         style="fill:url(#linearGradient931);fill-opacity:1;stroke:none;stroke-width:0.08809;stroke-dasharray:none;stroke-opacity:1"
         id="rect1682"
         width="7.4347219"
         height="9.1982174"
         x="25.403906"
         y="28.617779" /><path
         id="path1423"
         style="fill:url(#linearGradient931);fill-opacity:1;stroke:none;stroke-width:0.264583px;stroke-linecap:butt;stroke-linejoin:miter;stroke-opacity:1"
         d="m 33.140787,29.48479 c -2.315429,-0.01975 -4.418335,1.069702 -4.418335,1.069702 l -4.266923,2.128552 c 0,0 -3.96528,2.021026 -3.855062,2.942973 0.110217,0.921947 1.632006,3.05659 8.672855,3.285071 7.040852,0.22848 8.173662,-4.332036 8.173662,-4.332036 0,0 1.225771,-3.022549 -1.79989,-4.533573 -0.803692,-0.401366 -1.668812,-0.553546 -2.506307,-0.560689 z m -1.362708,1.53944 c 1.988404,0.02911 2.841687,1.120345 2.841687,1.120345 0,0 0.682066,0.582796 -0.03566,2.039669 -0.684175,1.388778 -3.447851,2.248442 -3.447851,2.248442 0,0 -4.351326,1.292941 -6.765995,-0.316777 -2.41467,-1.609717 1.462959,-3.432865 1.462959,-3.432865 0,0 2.122386,-1.327404 5.290633,-1.631425 0.230301,-0.0221 0.448527,-0.0304 0.654224,-0.02739 z" /><rect
         style="fill:url(#linearGradient931);fill-opacity:1;stroke:none;stroke-width:0.0740728;stroke-dasharray:none;stroke-opacity:1"
         id="rect6953"
         width="7.4487391"
         height="6.4915729"
         x="25.396896"
         y="28.610769" /><g
         aria-label="&lt;/&gt;"
         transform="scale(0.8543659,1.1704587)"
         id="text1824"
         style="font-size:3.56213px;line-height:1.25;fill:url(#linearGradient931);stroke:none;stroke-width:0.089053;fill-opacity:1"><path
           d="m 33.10774,26.545974 -1.794979,0.638331 1.794979,0.634852 v 0.316556 l -2.229809,-0.808784 v -0.288727 l 2.229809,-0.808785 z"
           id="path811"
           style="stroke:none;fill:url(#linearGradient931);fill-opacity:1" /><path
           d="m 34.38962,25.702403 h 0.295685 l -0.904447,2.927278 h -0.295685 z"
           id="path813"
           style="stroke:none;fill:url(#linearGradient931);fill-opacity:1" /><path
           d="m 35.062737,26.545974 v -0.316557 l 2.22981,0.808785 v 0.288727 l -2.22981,0.808784 v -0.316556 l 1.791501,-0.634852 z"
           id="path815"
           style="stroke:none;fill:url(#linearGradient931);fill-opacity:1" /></g></g></g></svg>
